<svg width="318" height="74" viewBox="0 0 318 74" fill="none" xmlns="http://www.w3.org/2000/svg">
    <path d="M103.818 4.19507C103.818 5.33659 104.22 6.30688 105.024 7.13448C105.827 7.96208 106.86 8.39015 108.094 8.39015H117.85C119.084 8.39015 120.117 7.96208 120.921 7.13448C121.724 6.27834 122.126 5.33659 122.126 4.19507C122.126 3.05356 121.724 2.08327 120.921 1.25567C120.117 0.428069 119.084 0 117.85 0H108.094C106.86 0 105.827 0.428069 105.024 1.25567C104.22 2.11181 103.818 3.05356 103.818 4.19507Z" fill="#1E1E1E"/>
    <path d="M108.295 17.8357C107.492 17.0081 107.09 16.0378 107.09 14.8962C107.09 13.7547 107.492 12.813 108.295 11.9568C109.099 11.1292 110.132 10.7012 111.365 10.7012H117.965C119.199 10.7012 120.232 11.1292 121.036 11.9568C121.839 12.7844 122.241 13.7547 122.241 14.8962C122.241 16.0378 121.839 16.9795 121.036 17.8357C120.232 18.6632 119.199 19.0913 117.965 19.0913H111.365C110.132 19.0913 109.099 18.6632 108.295 17.8357Z" fill="#1E1E1E"/>
    <path d="M186.059 28.5095C185.255 27.6819 184.854 26.7116 184.854 25.5701C184.854 24.4286 185.255 23.4868 186.059 22.6307C186.862 21.8031 187.895 21.375 189.129 21.375H195.729C196.963 21.375 197.996 21.8031 198.799 22.6307C199.603 23.4583 200.005 24.4286 200.005 25.5701C200.005 26.7116 199.603 27.6533 198.799 28.5095C197.996 29.3371 196.963 29.7651 195.729 29.7651H189.129C187.895 29.7651 186.862 29.3371 186.059 28.5095Z" fill="#1E1E1E"/>
    <path d="M76.2422 25.5974C76.2422 26.7389 76.6439 27.7092 77.4474 28.5368C78.2508 29.3644 79.2839 29.7925 80.5178 29.7925H87.1177C88.3516 29.7925 89.3846 29.3644 90.188 28.5368C90.9915 27.6807 91.3932 26.7389 91.3932 25.5974C91.3932 24.4559 90.9915 23.4856 90.188 22.658C89.3846 21.8304 88.3516 21.4023 87.1177 21.4023H80.5178C79.2839 21.4023 78.2508 21.8304 77.4474 22.658C76.6439 23.5142 76.2422 24.4559 76.2422 25.5974Z" fill="#1E1E1E"/>
    <path d="M26.3126 39.2399C25.5092 38.4123 25.1074 37.4421 25.1074 36.3005C25.1074 35.159 25.5092 34.2173 26.3126 33.3611C27.1161 32.5335 28.1491 32.1055 29.383 32.1055H35.9829C37.2168 32.1055 38.2498 32.5335 39.0533 33.3611C39.8567 34.1887 40.2585 35.159 40.2585 36.3005C40.2585 37.4421 39.8567 38.3838 39.0533 39.2399C38.2498 40.0675 37.2168 40.4956 35.9829 40.4956H29.383C28.1491 40.4956 27.1161 40.0675 26.3126 39.2399Z" fill="#1E1E1E"/>
    <path d="M60.9493 39.2399C60.1459 38.4123 59.7441 37.4421 59.7441 36.3005C59.7441 35.159 60.1459 34.2173 60.9493 33.3611C61.7528 32.5335 62.7858 32.1055 64.0197 32.1055H74.9239C76.1578 32.1055 77.1908 32.5335 77.9943 33.3611C78.7977 34.1887 79.1995 35.159 79.1995 36.3005C79.1995 37.4421 78.7977 38.3838 77.9943 39.2399C77.1908 40.0675 76.1578 40.4956 74.9239 40.4956H64.0197C62.7858 40.4956 61.7528 40.0675 60.9493 39.2399Z" fill="#1E1E1E"/>
    <path d="M108.295 28.5368C107.492 27.7092 107.09 26.7389 107.09 25.5974C107.09 24.4559 107.492 23.5142 108.295 22.658C109.099 21.8304 110.132 21.4023 111.365 21.4023H117.965C119.199 21.4023 120.232 21.8304 121.036 22.658C121.839 23.4856 122.241 24.4559 122.241 25.5974C122.241 26.7389 121.839 27.6807 121.036 28.5368C120.232 29.3644 119.199 29.7925 117.965 29.7925H111.365C110.132 29.7925 109.099 29.3644 108.295 28.5368Z" fill="#1E1E1E"/>
    <path d="M158.971 36.3005C158.971 37.4421 159.372 38.4123 160.176 39.2399C160.979 40.0675 162.012 40.4956 163.246 40.4956H169.846C171.08 40.4956 172.113 40.0675 172.917 39.2399C173.72 38.3838 174.122 37.4421 174.122 36.3005C174.122 35.159 173.72 34.1887 172.917 33.3611C172.113 32.5335 171.08 32.1055 169.846 32.1055H163.246C162.012 32.1055 160.979 32.5335 160.176 33.3611C159.372 34.2173 158.971 35.159 158.971 36.3005Z" fill="#1E1E1E"/>
    <path d="M217.137 49.9118C216.333 49.0842 215.932 48.1139 215.932 46.9724C215.932 45.8309 216.333 44.8892 217.137 44.033C217.94 43.2054 218.973 42.7773 220.207 42.7773H226.807C228.041 42.7773 229.074 43.2054 229.878 44.033C230.681 44.8606 231.083 45.8309 231.083 46.9724C231.083 48.1139 230.681 49.0557 229.878 49.9118C229.074 50.7394 228.041 51.1675 226.807 51.1675H220.207C218.973 51.1675 217.94 50.7394 217.137 49.9118Z" fill="#1E1E1E"/>
    <path d="M244.396 46.9724C244.396 48.1139 244.798 49.0842 245.602 49.9118C246.405 50.7394 247.438 51.1675 248.672 51.1675H255.272C256.506 51.1675 257.539 50.7394 258.342 49.9118C259.146 49.0557 259.548 48.1139 259.548 46.9724C259.548 45.8309 259.146 44.8606 258.342 44.033C257.539 43.2054 256.506 42.7773 255.272 42.7773H248.672C247.438 42.7773 246.405 43.2054 245.602 44.033C244.798 44.8892 244.396 45.8309 244.396 46.9724Z" fill="#1E1E1E"/>
    <path d="M245.602 60.6149C244.798 59.7873 244.396 58.8171 244.396 57.6755C244.396 56.534 244.798 55.5923 245.602 54.7361C246.405 53.9085 247.438 53.4805 248.672 53.4805H255.272C256.506 53.4805 257.539 53.9085 258.342 54.7361C259.146 55.5637 259.548 56.534 259.548 57.6755C259.548 58.8171 259.146 59.7588 258.342 60.6149C257.539 61.4425 256.506 61.8706 255.272 61.8706H248.672C247.438 61.8706 246.405 61.4425 245.602 60.6149Z" fill="#1E1E1E"/>
    <path d="M244.396 68.3474C244.396 69.4889 244.798 70.4592 245.602 71.2868C246.405 72.1144 247.438 72.5425 248.672 72.5425H255.272C256.506 72.5425 257.539 72.1144 258.342 71.2868C259.146 70.4307 259.548 69.4889 259.548 68.3474C259.548 67.2059 259.146 66.2356 258.342 65.408C257.539 64.5804 256.506 64.1523 255.272 64.1523H248.672C247.438 64.1523 246.405 64.5804 245.602 65.408C244.798 66.2642 244.396 67.2059 244.396 68.3474Z" fill="#1E1E1E"/>
    <path d="M217.137 60.6149C216.333 59.7873 215.932 58.8171 215.932 57.6755C215.932 56.534 216.333 55.5923 217.137 54.7361C217.94 53.9085 218.973 53.4805 220.207 53.4805H226.807C228.041 53.4805 229.074 53.9085 229.878 54.7361C230.681 55.5637 231.083 56.534 231.083 57.6755C231.083 58.8171 230.681 59.7588 229.878 60.6149C229.074 61.4425 228.041 61.8706 226.807 61.8706H220.207C218.973 61.8706 217.94 61.4425 217.137 60.6149Z" fill="#1E1E1E"/>
    <path d="M215.932 68.3474C215.932 69.4889 216.333 70.4592 217.137 71.2868C217.94 72.1144 218.973 72.5425 220.207 72.5425H226.807C228.041 72.5425 229.074 72.1144 229.878 71.2868C230.681 70.4307 231.083 69.4889 231.083 68.3474C231.083 67.2059 230.681 66.2356 229.878 65.408C229.074 64.5804 228.041 64.1523 226.807 64.1523H220.207C218.973 64.1523 217.94 64.5804 217.137 65.408C216.333 66.2642 215.932 67.2059 215.932 68.3474Z" fill="#1E1E1E"/>
    <path d="M160.176 49.9411C159.372 49.1135 158.971 48.1432 158.971 47.0017C158.971 45.8602 159.372 44.9184 160.176 44.0623C160.979 43.2347 162.012 42.8066 163.246 42.8066H169.846C171.08 42.8066 172.113 43.2347 172.917 44.0623C173.72 44.8899 174.122 45.8602 174.122 47.0017C174.122 48.1432 173.72 49.085 172.917 49.9411C172.113 50.7687 171.08 51.1968 169.846 51.1968H163.246C162.012 51.1968 160.979 50.7687 160.176 49.9411Z" fill="#1E1E1E"/>
    <path d="M158.971 57.7029C158.971 58.8444 159.372 59.8147 160.176 60.6423C160.979 61.4699 162.012 61.898 163.246 61.898H169.846C171.08 61.898 172.113 61.4699 172.917 60.6423C173.72 59.7862 174.122 58.8444 174.122 57.7029C174.122 56.5614 173.72 55.5911 172.917 54.7635C172.113 53.9359 171.08 53.5078 169.846 53.5078H163.246C162.012 53.5078 160.979 53.9359 160.176 54.7635C159.372 55.6196 158.971 56.5614 158.971 57.7029Z" fill="#1E1E1E"/>
    <path d="M190.135 71.4314C189.331 70.6038 188.93 69.6335 188.93 68.4919C188.93 67.3504 189.331 66.4087 190.135 65.5525C190.938 64.7249 191.971 64.2969 193.205 64.2969H199.805C201.039 64.2969 202.072 64.7249 202.876 65.5525C203.679 66.3801 204.081 67.3504 204.081 68.4919C204.081 69.6335 203.679 70.5752 202.876 71.4314C202.072 72.259 201.039 72.687 199.805 72.687H193.205C191.971 72.687 190.938 72.259 190.135 71.4314Z" fill="#1E1E1E"/>
    <path d="M184.854 57.7029C184.854 58.8444 185.255 59.8147 186.059 60.6423C186.862 61.4699 187.895 61.898 189.129 61.898H195.729C196.963 61.898 197.996 61.4699 198.799 60.6423C199.603 59.7862 200.005 58.8444 200.005 57.7029C200.005 56.5614 199.603 55.5911 198.799 54.7635C197.996 53.9359 196.963 53.5078 195.729 53.5078H189.129C187.895 53.5078 186.862 53.9359 186.059 54.7635C185.255 55.6196 184.854 56.5614 184.854 57.7029Z" fill="#1E1E1E"/>
    <path d="M186.059 49.9411C185.255 49.1135 184.854 48.1432 184.854 47.0017C184.854 45.8602 185.255 44.9184 186.059 44.0623C186.862 43.2347 187.895 42.8066 189.129 42.8066H195.729C196.963 42.8066 197.996 43.2347 198.799 44.0623C199.603 44.8899 200.005 45.8602 200.005 47.0017C200.005 48.1432 199.603 49.085 198.799 49.9411C197.996 50.7687 196.963 51.1968 195.729 51.1968H189.129C187.895 51.1968 186.862 50.7687 186.059 49.9411Z" fill="#1E1E1E"/>
    <path d="M184.854 36.3005C184.854 37.4421 185.255 38.4123 186.059 39.2399C186.862 40.0675 187.895 40.4956 189.129 40.4956H195.729C196.963 40.4956 197.996 40.0675 198.799 39.2399C199.603 38.3838 200.005 37.4421 200.005 36.3005C200.005 35.159 199.603 34.1887 198.799 33.3611C197.996 32.5335 196.963 32.1055 195.729 32.1055H189.129C187.895 32.1055 186.862 32.5335 186.059 33.3611C185.255 34.2173 184.854 35.159 184.854 36.3005Z" fill="#1E1E1E"/>
    <path d="M107.09 36.3005C107.09 37.4421 107.492 38.4123 108.295 39.2399C109.099 40.0675 110.132 40.4956 111.365 40.4956H117.965C119.199 40.4956 120.232 40.0675 121.036 39.2399C121.839 38.3838 122.241 37.4421 122.241 36.3005C122.241 35.159 121.839 34.1887 121.036 33.3611C120.232 32.5335 119.199 32.1055 117.965 32.1055H111.365C110.132 32.1055 109.099 32.5335 108.295 33.3611C107.492 34.2173 107.09 35.159 107.09 36.3005Z" fill="#1E1E1E"/>
    <path d="M108.295 49.9411C107.492 49.1135 107.09 48.1432 107.09 47.0017C107.09 45.8602 107.492 44.9184 108.295 44.0623C109.099 43.2347 110.132 42.8066 111.365 42.8066H130.878C132.112 42.8066 133.145 43.2347 133.949 44.0623C134.752 44.8899 135.154 45.8602 135.154 47.0017C135.154 48.1432 134.752 49.085 133.949 49.9411C133.145 50.7687 132.112 51.1968 130.878 51.1968H111.365C110.132 51.1968 109.099 50.7687 108.295 49.9411Z" fill="#1E1E1E"/>
    <path d="M107.09 57.7029C107.09 58.8444 107.492 59.8147 108.295 60.6423C109.099 61.4699 110.132 61.898 111.365 61.898H117.965C119.199 61.898 120.232 61.4699 121.036 60.6423C121.839 59.7862 122.241 58.8444 122.241 57.7029C122.241 56.5614 121.839 55.5911 121.036 54.7635C120.232 53.9359 119.199 53.5078 117.965 53.5078H111.365C110.132 53.5078 109.099 53.9359 108.295 54.7635C107.492 55.6196 107.09 56.5614 107.09 57.7029Z" fill="#1E1E1E"/>
    <path d="M128.783 60.6423C127.98 59.8147 127.578 58.8444 127.578 57.7029C127.578 56.5614 127.98 55.6196 128.783 54.7635C129.587 53.9359 130.62 53.5078 131.854 53.5078H138.454C139.688 53.5078 140.721 53.9359 141.524 54.7635C142.327 55.5911 142.729 56.5614 142.729 57.7029C142.729 58.8444 142.327 59.7862 141.524 60.6423C140.721 61.4699 139.688 61.898 138.454 61.898H131.854C130.62 61.898 129.587 61.4699 128.783 60.6423Z" fill="#1E1E1E"/>
    <path d="M125.857 36.3005C125.857 37.4421 126.259 38.4123 127.063 39.2399C127.866 40.0675 128.899 40.4956 130.133 40.4956H134.437C135.671 40.4956 136.704 40.0675 137.508 39.2399C138.311 38.3838 138.713 37.4421 138.713 36.3005C138.713 35.159 138.311 34.1887 137.508 33.3611C136.704 32.5335 135.671 32.1055 134.437 32.1055H130.133C128.899 32.1055 127.866 32.5335 127.063 33.3611C126.259 34.2173 125.857 35.159 125.857 36.3005Z" fill="#1E1E1E"/>
    <path d="M129.588 25.5974C129.588 26.7389 129.99 27.7092 130.793 28.5368C131.597 29.3644 132.63 29.7925 133.863 29.7925H143.333C144.567 29.7925 145.6 29.3644 146.403 28.5368C147.207 27.6807 147.608 26.7389 147.608 25.5974C147.608 24.4559 147.207 23.4856 146.403 22.658C145.6 21.8304 144.567 21.4023 143.333 21.4023H133.863C132.63 21.4023 131.597 21.8304 130.793 22.658C129.99 23.5142 129.588 24.4559 129.588 25.5974Z" fill="#1E1E1E"/>
    <path d="M157.479 28.5368C156.675 27.7092 156.273 26.7389 156.273 25.5974C156.273 24.4559 156.675 23.5142 157.479 22.658C158.282 21.8304 159.315 21.4023 160.549 21.4023H168.584C169.818 21.4023 170.851 21.8304 171.654 22.658C172.458 23.4856 172.859 24.4559 172.859 25.5974C172.859 26.7389 172.458 27.6807 171.654 28.5368C170.851 29.3644 169.818 29.7925 168.584 29.7925H160.549C159.315 29.7925 158.282 29.3644 157.479 28.5368Z" fill="#1E1E1E"/>
    <path d="M238.629 25.5701C238.629 26.7116 239.031 27.6819 239.834 28.5095C240.638 29.3371 241.671 29.7651 242.904 29.7651H249.504C250.738 29.7651 251.771 29.3371 252.575 28.5095C253.378 27.6533 253.78 26.7116 253.78 25.5701C253.78 24.4286 253.378 23.4583 252.575 22.6307C251.771 21.8031 250.738 21.375 249.504 21.375H242.904C241.671 21.375 240.638 21.8031 239.834 22.6307C239.031 23.4868 238.629 24.4286 238.629 25.5701Z" fill="#1E1E1E"/>
    <path d="M234.067 49.9118C233.263 49.0842 232.861 48.1139 232.861 46.9724C232.861 45.8309 233.263 44.8892 234.067 44.033C234.87 43.2054 235.903 42.7773 237.137 42.7773H239.146C240.379 42.7773 241.413 43.2054 242.216 44.033C243.019 44.8606 243.421 45.8309 243.421 46.9724C243.421 48.1139 243.019 49.0557 242.216 49.9118C241.413 50.7394 240.379 51.1675 239.146 51.1675H237.137C235.903 51.1675 234.87 50.7394 234.067 49.9118Z" fill="#1E1E1E"/>
    <path d="M213.578 25.5974C213.578 26.7389 213.98 27.7092 214.783 28.5368C215.587 29.3644 216.62 29.7925 217.854 29.7925H225.888C227.122 29.7925 228.155 29.3644 228.959 28.5368C229.762 27.6807 230.164 26.7389 230.164 25.5974C230.164 24.4559 229.762 23.4856 228.959 22.658C228.155 21.8304 227.122 21.4023 225.888 21.4023H217.854C216.62 21.4023 215.587 21.8304 214.783 22.658C213.98 23.5142 213.578 24.4559 213.578 25.5974Z" fill="#1E1E1E"/>
    <path d="M81.7521 39.2399C80.9486 38.4123 80.5469 37.4421 80.5469 36.3005C80.5469 35.159 80.9486 34.2173 81.7521 33.3611C82.5555 32.5335 83.5886 32.1055 84.8225 32.1055H91.4223C92.6562 32.1055 93.6893 32.5335 94.4927 33.3611C95.2962 34.1887 95.6979 35.159 95.6979 36.3005C95.6979 37.4421 95.2962 38.3838 94.4927 39.2399C93.6893 40.0675 92.6562 40.4956 91.4223 40.4956H84.8225C83.5886 40.4956 82.5555 40.0675 81.7521 39.2399Z" fill="#1E1E1E"/>
    <path d="M80.5469 47.0017C80.5469 48.1432 80.9486 49.1135 81.7521 49.9411C82.5555 50.7687 83.5886 51.1968 84.8225 51.1968H91.4223C92.6562 51.1968 93.6893 50.7687 94.4927 49.9411C95.2962 49.085 95.6979 48.1432 95.6979 47.0017C95.6979 45.8602 95.2962 44.8899 94.4927 44.0623C93.6893 43.2347 92.6562 42.8066 91.4223 42.8066H84.8225C83.5886 42.8066 82.5555 43.2347 81.7521 44.0623C80.9486 44.9184 80.5469 45.8602 80.5469 47.0017Z" fill="#1E1E1E"/>
    <path d="M56.3575 28.5368C55.5541 27.7092 55.1523 26.7389 55.1523 25.5974C55.1523 24.4559 55.5541 23.5142 56.3575 22.658C57.161 21.8304 58.194 21.4023 59.4279 21.4023H70.619C71.8529 21.4023 72.886 21.8304 73.6894 22.658C74.4929 23.4856 74.8946 24.4559 74.8946 25.5974C74.8946 26.7389 74.4929 27.6807 73.6894 28.5368C72.886 29.3644 71.8529 29.7925 70.619 29.7925H59.4279C58.194 29.7925 57.161 29.3644 56.3575 28.5368Z" fill="#1E1E1E"/>
    <path d="M164.768 71.3454C163.964 70.5178 163.562 69.5475 163.562 68.406C163.562 67.2645 163.964 66.3227 164.768 65.4666C165.571 64.639 166.604 64.2109 167.838 64.2109H183.333C184.567 64.2109 185.6 64.639 186.404 65.4666C187.207 66.2942 187.609 67.2645 187.609 68.406C187.609 69.5475 187.207 70.4893 186.404 71.3454C185.6 72.173 184.567 72.6011 183.333 72.6011H167.838C166.604 72.6011 165.571 72.173 164.768 71.3454Z" fill="#1E1E1E"/>
    <path d="M215.357 36.3005C215.357 37.4421 215.759 38.4123 216.563 39.2399C217.366 40.0675 218.399 40.4956 219.633 40.4956H232.259C233.493 40.4956 234.526 40.0675 235.329 39.2399C236.133 38.3838 236.534 37.4421 236.534 36.3005C236.534 35.159 236.133 34.1887 235.329 33.3611C234.526 32.5335 233.493 32.1055 232.259 32.1055H219.633C218.399 32.1055 217.366 32.5335 216.563 33.3611C215.759 34.2173 215.357 35.159 215.357 36.3005Z" fill="#1E1E1E"/>
    <path d="M239.52 39.2399C238.716 38.4123 238.314 37.4421 238.314 36.3005C238.314 35.159 238.716 34.2173 239.52 33.3611C240.323 32.5335 241.356 32.1055 242.59 32.1055H255.216C256.45 32.1055 257.483 32.5335 258.286 33.3611C259.09 34.1887 259.491 35.159 259.491 36.3005C259.491 37.4421 259.09 38.3838 258.286 39.2399C257.483 40.0675 256.45 40.4956 255.216 40.4956H242.59C241.356 40.4956 240.323 40.0675 239.52 39.2399Z" fill="#1E1E1E"/>
    <path d="M272.891 36.2712C272.891 37.4128 273.292 38.3831 274.096 39.2107C274.899 40.0382 275.932 40.4663 277.166 40.4663H283.766C285 40.4663 286.033 40.0382 286.836 39.2107C287.64 38.3545 288.042 37.4128 288.042 36.2712C288.042 35.1297 287.64 34.1594 286.836 33.3318C286.033 32.5042 285 32.0762 283.766 32.0762H277.166C275.932 32.0762 274.899 32.5042 274.096 33.3318C273.292 34.188 272.891 35.1297 272.891 36.2712Z" fill="#1E1E1E"/>
    <path d="M274.096 49.9118C273.292 49.0842 272.891 48.1139 272.891 46.9724C272.891 45.8309 273.292 44.8892 274.096 44.033C274.899 43.2054 275.932 42.7773 277.166 42.7773H283.766C285 42.7773 286.033 43.2054 286.836 44.033C287.64 44.8606 288.042 45.8309 288.042 46.9724C288.042 48.1139 287.64 49.0557 286.836 49.9118C286.033 50.7394 285 51.1675 283.766 51.1675H277.166C275.932 51.1675 274.899 50.7394 274.096 49.9118Z" fill="#1E1E1E"/>
    <path d="M272.891 57.6755C272.891 58.8171 273.292 59.7873 274.096 60.6149C274.899 61.4425 275.932 61.8706 277.166 61.8706H283.766C285 61.8706 286.033 61.4425 286.836 60.6149C287.64 59.7588 288.042 58.8171 288.042 57.6755C288.042 56.534 287.64 55.5637 286.836 54.7361C286.033 53.9085 285 53.4805 283.766 53.4805H277.166C275.932 53.4805 274.899 53.9085 274.096 54.7361C273.292 55.5923 272.891 56.534 272.891 57.6755Z" fill="#1E1E1E"/>
    <path d="M304.055 71.4021C303.251 70.5745 302.85 69.6042 302.85 68.4626C302.85 67.3211 303.251 66.3794 304.055 65.5232C304.858 64.6956 305.891 64.2676 307.125 64.2676H313.725C314.959 64.2676 315.992 64.6956 316.795 65.5232C317.599 66.3508 318.001 67.3211 318.001 68.4626C318.001 69.6042 317.599 70.5459 316.795 71.4021C315.992 72.2297 314.959 72.6577 313.725 72.6577H307.125C305.891 72.6577 304.858 72.2297 304.055 71.4021Z" fill="#1E1E1E"/>
    <path d="M298.773 57.6755C298.773 58.8171 299.175 59.7873 299.979 60.6149C300.782 61.4425 301.815 61.8706 303.049 61.8706H309.649C310.883 61.8706 311.916 61.4425 312.719 60.6149C313.523 59.7588 313.924 58.8171 313.924 57.6755C313.924 56.534 313.523 55.5637 312.719 54.7361C311.916 53.9085 310.883 53.4805 309.649 53.4805H303.049C301.815 53.4805 300.782 53.9085 299.979 54.7361C299.175 55.5923 298.773 56.534 298.773 57.6755Z" fill="#1E1E1E"/>
    <path d="M299.979 49.9118C299.175 49.0842 298.773 48.1139 298.773 46.9724C298.773 45.8309 299.175 44.8892 299.979 44.033C300.782 43.2054 301.815 42.7773 303.049 42.7773H309.649C310.883 42.7773 311.916 43.2054 312.719 44.033C313.523 44.8606 313.924 45.8309 313.924 46.9724C313.924 48.1139 313.523 49.0557 312.719 49.9118C311.916 50.7394 310.883 51.1675 309.649 51.1675H303.049C301.815 51.1675 300.782 50.7394 299.979 49.9118Z" fill="#1E1E1E"/>
    <path d="M298.773 36.2712C298.773 37.4128 299.175 38.3831 299.979 39.2107C300.782 40.0382 301.815 40.4663 303.049 40.4663H309.649C310.883 40.4663 311.916 40.0382 312.719 39.2107C313.523 38.3545 313.924 37.4128 313.924 36.2712C313.924 35.1297 313.523 34.1594 312.719 33.3318C311.916 32.5042 310.883 32.0762 309.649 32.0762H303.049C301.815 32.0762 300.782 32.5042 299.979 33.3318C299.175 34.188 298.773 35.1297 298.773 36.2712Z" fill="#1E1E1E"/>
    <path d="M299.979 28.4802C299.175 27.6526 298.773 26.6823 298.773 25.5408C298.773 24.3993 299.175 23.4575 299.979 22.6014C300.782 21.7738 301.815 21.3457 303.049 21.3457H309.649C310.883 21.3457 311.916 21.7738 312.719 22.6014C313.523 23.429 313.924 24.3993 313.924 25.5408C313.924 26.6823 313.523 27.624 312.719 28.4802C311.916 29.3078 310.883 29.7359 309.649 29.7359H303.049C301.815 29.7359 300.782 29.3078 299.979 28.4802Z" fill="#1E1E1E"/>
    <path d="M268.73 25.5701C268.73 26.7116 269.132 27.6819 269.936 28.5095C270.739 29.3371 271.772 29.7651 273.006 29.7651H282.475C283.709 29.7651 284.742 29.3371 285.546 28.5095C286.349 27.6533 286.751 26.7116 286.751 25.5701C286.751 24.4286 286.349 23.4583 285.546 22.6307C284.742 21.8031 283.709 21.375 282.475 21.375H273.006C271.772 21.375 270.739 21.8031 269.936 22.6307C269.132 23.4868 268.73 24.4286 268.73 25.5701Z" fill="#1E1E1E"/>
    <path d="M278.658 71.3161C277.855 70.4885 277.453 69.5182 277.453 68.3767C277.453 67.2352 277.855 66.2934 278.658 65.4373C279.462 64.6097 280.495 64.1816 281.729 64.1816H297.224C298.458 64.1816 299.491 64.6097 300.294 65.4373C301.098 66.2649 301.5 67.2352 301.5 68.3767C301.5 69.5182 301.098 70.46 300.294 71.3161C299.491 72.1437 298.458 72.5718 297.224 72.5718H281.729C280.495 72.5718 279.462 72.1437 278.658 71.3161Z" fill="#1E1E1E"/>
    <path d="M103.818 68.406C103.818 69.5475 104.22 70.5178 105.024 71.3454C105.827 72.173 106.86 72.6011 108.094 72.6011H117.85C119.084 72.6011 120.117 72.173 120.921 71.3454C121.724 70.4893 122.126 69.5475 122.126 68.406C122.126 67.2645 121.724 66.2942 120.921 65.4666C120.117 64.639 119.084 64.2109 117.85 64.2109H108.094C106.86 64.2109 105.827 64.639 105.024 65.4666C104.22 66.3227 103.818 67.2645 103.818 68.406Z" fill="#1E1E1E"/>
    <path d="M133.863 71.3454C133.06 70.5178 132.658 69.5475 132.658 68.406C132.658 67.2645 133.06 66.3227 133.863 65.4666C134.667 64.639 135.7 64.2109 136.934 64.2109H145.542C146.776 64.2109 147.809 64.639 148.613 65.4666C149.416 66.2942 149.818 67.2645 149.818 68.406C149.818 69.5475 149.416 70.4893 148.613 71.3454C147.809 72.173 146.776 72.6011 145.542 72.6011H136.934C135.7 72.6011 134.667 72.173 133.863 71.3454Z" fill="#1E1E1E"/>
    <path d="M59.7441 47.0017C59.7441 48.1432 60.1459 49.1135 60.9493 49.9411C61.7528 50.7687 62.7858 51.1968 64.0197 51.1968H70.6196C71.8535 51.1968 72.8865 50.7687 73.69 49.9411C74.4935 49.085 74.8952 48.1432 74.8952 47.0017C74.8952 45.8602 74.4935 44.8899 73.69 44.0623C72.8865 43.2347 71.8535 42.8066 70.6196 42.8066H64.0197C62.7858 42.8066 61.7528 43.2347 60.9493 44.0623C60.1459 44.9184 59.7441 45.8602 59.7441 47.0017Z" fill="#1E1E1E"/>
    <path d="M60.9493 60.6423C60.1459 59.8147 59.7441 58.8444 59.7441 57.7029C59.7441 56.5614 60.1459 55.6196 60.9493 54.7635C61.7528 53.9359 62.7858 53.5078 64.0197 53.5078H70.6196C71.8535 53.5078 72.8865 53.9359 73.69 54.7635C74.4935 55.5911 74.8952 56.5614 74.8952 57.7029C74.8952 58.8444 74.4935 59.7862 73.69 60.6423C72.8865 61.4699 71.8535 61.898 70.6196 61.898H64.0197C62.7858 61.898 61.7528 61.4699 60.9493 60.6423Z" fill="#1E1E1E"/>
    <path d="M55.7266 68.8337C55.7266 69.9753 56.1283 70.9455 56.9318 71.7732C57.7352 72.6008 58.7682 73.0288 60.0021 73.0288H75.4975C76.7314 73.0288 77.7645 72.6008 78.5679 71.7732C79.3714 70.917 79.7731 69.9753 79.7731 68.8337C79.7731 67.6922 79.3714 66.7219 78.5679 65.8943C77.7645 65.0667 76.7314 64.6387 75.4975 64.6387H60.0021C58.7682 64.6387 57.7352 65.0667 56.9318 65.8943C56.1283 66.7505 55.7266 67.6922 55.7266 68.8337Z" fill="#1E1E1E"/>
    <path d="M9.06848 28.5368C8.26501 27.7092 7.86328 26.7389 7.86328 25.5974C7.86328 24.4559 8.26501 23.5142 9.06848 22.658C9.87194 21.8304 10.905 21.4023 12.1389 21.4023H30.5038C31.7377 21.4023 32.7707 21.8304 33.5742 22.658C34.3776 23.4856 34.7794 24.4559 34.7794 25.5974C34.7794 26.7389 34.3776 27.6807 33.5742 28.5368C32.7707 29.3644 31.7377 29.7925 30.5038 29.7925H12.1389C10.905 29.7925 9.87194 29.3644 9.06848 28.5368Z" fill="#1E1E1E"/>
    <path d="M25.1074 57.7029C25.1074 58.8444 25.5092 59.8147 26.3126 60.6423C27.1161 61.4699 28.1491 61.898 29.383 61.898H35.9829C37.2168 61.898 38.2498 61.4699 39.0533 60.6423C39.8567 59.7862 40.2585 58.8444 40.2585 57.7029C40.2585 56.5614 39.8567 55.5911 39.0533 54.7635C38.2498 53.9359 37.2168 53.5078 35.9829 53.5078H29.383C28.1491 53.5078 27.1161 53.9359 26.3126 54.7635C25.5092 55.6196 25.1074 56.5614 25.1074 57.7029Z" fill="#1E1E1E"/>
    <path d="M27.6622 71.4314C26.8588 70.6038 26.457 69.6335 26.457 68.4919C26.457 67.3504 26.8588 66.4087 27.6622 65.5525C28.4657 64.7249 29.4987 64.2969 30.7326 64.2969H40.7759C42.0098 64.2969 43.0428 64.7249 43.8463 65.5525C44.6498 66.3801 45.0515 67.3504 45.0515 68.4919C45.0515 69.6335 44.6498 70.5752 43.8463 71.4314C43.0428 72.259 42.0098 72.687 40.7759 72.687H30.7326C29.4987 72.687 28.4657 72.259 27.6622 71.4314Z" fill="#1E1E1E"/>
    <path d="M0 57.7029C0 58.8444 0.401732 59.8147 1.2052 60.6423C2.00866 61.4699 3.04169 61.898 4.27558 61.898H10.8755C12.1094 61.898 13.1424 61.4699 13.9459 60.6423C14.7493 59.7862 15.1511 58.8444 15.1511 57.7029C15.1511 56.5614 14.7493 55.5911 13.9459 54.7635C13.1424 53.9359 12.1094 53.5078 10.8755 53.5078H4.27558C3.04169 53.5078 2.00866 53.9359 1.2052 54.7635C0.401732 55.6196 0 56.5614 0 57.7029Z" fill="#1E1E1E"/>
    <path d="M7.11731 71.3454C6.31384 70.5178 5.91211 69.5475 5.91211 68.406C5.91211 67.2645 6.31384 66.3227 7.11731 65.4666C7.92077 64.639 8.9538 64.2109 10.1877 64.2109H20.8049C22.0388 64.2109 23.0718 64.639 23.8753 65.4666C24.6788 66.2942 25.0805 67.2645 25.0805 68.406C25.0805 69.5475 24.6788 70.4893 23.8753 71.3454C23.0718 72.173 22.0388 72.6011 20.8049 72.6011H10.1877C8.9538 72.6011 7.92077 72.173 7.11731 71.3454Z" fill="#1E1E1E"/>
    <path d="M9.69922 47.0017C9.69922 48.1432 10.101 49.1135 10.9044 49.9411C11.7079 50.7687 12.7409 51.1968 13.9748 51.1968H35.5249C36.7588 51.1968 37.7918 50.7687 38.5953 49.9411C39.3987 49.085 39.8005 48.1432 39.8005 47.0017C39.8005 45.8602 39.3987 44.8899 38.5953 44.0623C37.7918 43.2347 36.7588 42.8066 35.5249 42.8066H13.9748C12.7409 42.8066 11.7079 43.2347 10.9044 44.0623C10.101 44.9184 9.69922 45.8602 9.69922 47.0017Z" fill="#1E1E1E"/>
    </svg>
    